name ./resultDataOpenSim/trcMotMarkerGrf/sub09/grf-05-05.mot
datacolumns 19
datarows 27
range 1.04000000 1.14400000
endheader

                time	     ground_force_vx	     ground_force_vy	     ground_force_vz	     ground_force_px	     ground_force_py	     ground_force_pz	   l_ground_force_vx	   l_ground_force_vy	   l_ground_force_vz	   l_ground_force_px	   l_ground_force_py	   l_ground_force_pz	     ground_torque_x	     ground_torque_y	     ground_torque_z	   l_ground_torque_x	   l_ground_torque_y	   l_ground_torque_z	
          1.04000000	          0.00000000	          0.00000000	          0.00000000	          0.00000000	          0.00000000	          0.00000000	        -15.84796389	        411.34111935	         14.41841583	          0.13150639	         -0.10000000	          0.05576862	          0.00000000	          0.00000000	          0.00000000	          0.00000000	         -1.73107342	          0.00000000	
          1.04400000	          0.00000000	          0.00000000	          0.00000000	          0.00000000	          0.00000000	          0.00000000	        -15.19810037	        414.15364886	         14.11516603	          0.13133781	         -0.10000000	          0.05573709	          0.00000000	          0.00000000	          0.00000000	          0.00000000	         -1.92601403	          0.00000000	
          1.04800000	          0.00000000	          0.00000000	          0.00000000	          0.00000000	          0.00000000	          0.00000000	        -14.24437091	        417.17817694	         13.93547195	          0.13117801	         -0.10000000	          0.05569499	          0.00000000	          0.00000000	          0.00000000	          0.00000000	         -2.12465668	          0.00000000	
          1.05200000	          0.00000000	          0.00000000	          0.00000000	          0.00000000	          0.00000000	          0.00000000	        -12.87452193	        420.42456172	         13.91322350	          0.13106076	         -0.10000000	          0.05566743	          0.00000000	          0.00000000	          0.00000000	          0.00000000	         -2.32633941	          0.00000000	
          1.05600000	          0.00000000	          0.00000000	          0.00000000	          0.00000000	          0.00000000	          0.00000000	        -10.98769965	        423.94651339	         14.05708090	          0.13104745	         -0.10000000	          0.05568649	          0.00000000	          0.00000000	          0.00000000	          0.00000000	         -2.53090749	          0.00000000	
          1.06000000	          0.00000000	          0.00000000	          0.00000000	          0.00000000	          0.00000000	          0.00000000	         -8.51006425	        427.85397628	         14.35181907	          0.13118161	         -0.10000000	          0.05576269	          0.00000000	          0.00000000	          0.00000000	          0.00000000	         -2.73897663	          0.00000000	
          1.06400000	          0.00000000	          0.00000000	          0.00000000	          0.00000000	          0.00000000	          0.00000000	         -5.41767124	        432.30953975	         14.76653808	          0.13144622	         -0.10000000	          0.05587474	          0.00000000	          0.00000000	          0.00000000	          0.00000000	         -2.95188136	          0.00000000	
          1.06800000	          0.00000000	          0.00000000	          0.00000000	          0.00000000	          0.00000000	          0.00000000	         -1.74440629	        437.47904469	         15.26011264	          0.13176017	         -0.10000000	          0.05597607	          0.00000000	          0.00000000	          0.00000000	          0.00000000	         -3.17119727	          0.00000000	
          1.07200000	          0.00000000	          0.00000000	          0.00000000	          0.00000000	          0.00000000	          0.00000000	          2.43017467	        443.47516448	         15.78256601	          0.13200935	         -0.10000000	          0.05601524	          0.00000000	          0.00000000	          0.00000000	          0.00000000	         -3.39794371	          0.00000000	
          1.07600000	          0.00000000	          0.00000000	          0.00000000	          0.00000000	          0.00000000	          0.00000000	          6.99809142	        450.34453834	         16.28117392	          0.13209919	         -0.10000000	          0.05595964	          0.00000000	          0.00000000	          0.00000000	          0.00000000	         -3.63176632	          0.00000000	
          1.08000000	          0.00000000	          0.00000000	          0.00000000	          0.00000000	          0.00000000	          0.00000000	         11.84434390	        458.11511450	         16.72027087	          0.13200527	         -0.10000000	          0.05582082	          0.00000000	          0.00000000	          0.00000000	          0.00000000	         -3.87046073	          0.00000000	
          1.08400000	          0.00000000	          0.00000000	          0.00000000	          0.00000000	          0.00000000	          0.00000000	         16.86841523	        466.86624895	         17.10127435	          0.13179282	         -0.10000000	          0.05566427	          0.00000000	          0.00000000	          0.00000000	          0.00000000	         -4.11009560	          0.00000000	
          1.08800000	          0.00000000	          0.00000000	          0.00000000	          0.00000000	          0.00000000	          0.00000000	         21.99102249	        476.73660365	         17.45673266	          0.13157403	         -0.10000000	          0.05556485	          0.00000000	          0.00000000	          0.00000000	          0.00000000	         -4.34571343	          0.00000000	
          1.09200000	          0.00000000	          0.00000000	          0.00000000	          0.00000000	          0.00000000	          0.00000000	         27.14787312	        487.84574676	         17.82584863	          0.13144250	         -0.10000000	          0.05553874	          0.00000000	          0.00000000	          0.00000000	          0.00000000	         -4.57224461	          0.00000000	
          1.09600000	          0.00000000	          0.00000000	          0.00000000	          0.00000000	          0.00000000	          0.00000000	         32.27478231	        500.23942491	         18.24272294	          0.13142541	         -0.10000000	          0.05555148	          0.00000000	          0.00000000	          0.00000000	          0.00000000	         -4.78516408	          0.00000000	
          1.10000000	          0.00000000	          0.00000000	          0.00000000	          0.00000000	          0.00000000	          0.00000000	         37.29318511	        513.90786296	         18.73180782	          0.13150567	         -0.10000000	          0.05557413	          0.00000000	          0.00000000	          0.00000000	          0.00000000	         -4.98071834	          0.00000000	
          1.10400000	          0.00000000	          0.00000000	          0.00000000	          0.00000000	          0.00000000	          0.00000000	         42.11853962	        528.78401877	         19.29641290	          0.13167282	         -0.10000000	          0.05559519	          0.00000000	          0.00000000	          0.00000000	          0.00000000	         -5.15594890	          0.00000000	
          1.10800000	          0.00000000	          0.00000000	          0.00000000	          0.00000000	          0.00000000	          0.00000000	         46.68096127	        544.70821026	         19.91748859	          0.13188067	         -0.10000000	          0.05559034	          0.00000000	          0.00000000	          0.00000000	          0.00000000	         -5.30879124	          0.00000000	
          1.11200000	          0.00000000	          0.00000000	          0.00000000	          0.00000000	          0.00000000	          0.00000000	         50.93448894	        561.42314911	         20.56429413	          0.13203501	         -0.10000000	          0.05553211	          0.00000000	          0.00000000	          0.00000000	          0.00000000	         -5.43824104	          0.00000000	
          1.11600000	          0.00000000	          0.00000000	          0.00000000	          0.00000000	          0.00000000	          0.00000000	         54.87203214	        578.62348617	         21.20351080	          0.13206688	         -0.10000000	          0.05540283	          0.00000000	          0.00000000	          0.00000000	          0.00000000	         -5.54436283	          0.00000000	
          1.12000000	          0.00000000	          0.00000000	          0.00000000	          0.00000000	          0.00000000	          0.00000000	         58.54982349	        596.05508674	         21.81110543	          0.13201682	         -0.10000000	          0.05523260	          0.00000000	          0.00000000	          0.00000000	          0.00000000	         -5.62803293	          0.00000000	
          1.12400000	          0.00000000	          0.00000000	          0.00000000	          0.00000000	          0.00000000	          0.00000000	         62.08773654	        613.58827336	         22.38303063	          0.13195912	         -0.10000000	          0.05506384	          0.00000000	          0.00000000	          0.00000000	          0.00000000	         -5.69057771	          0.00000000	
          1.12800000	          0.00000000	          0.00000000	          0.00000000	          0.00000000	          0.00000000	          0.00000000	         65.63912417	        631.18343285	         22.92609820	          0.13193526	         -0.10000000	          0.05491744	          0.00000000	          0.00000000	          0.00000000	          0.00000000	         -5.73352210	          0.00000000	
          1.13200000	          0.00000000	          0.00000000	          0.00000000	          0.00000000	          0.00000000	          0.00000000	         69.34806022	        648.79054249	         23.43722630	          0.13196494	         -0.10000000	          0.05480491	          0.00000000	          0.00000000	          0.00000000	          0.00000000	         -5.75843500	          0.00000000	
          1.13600000	          0.00000000	          0.00000000	          0.00000000	          0.00000000	          0.00000000	          0.00000000	         73.30617709	        666.27811384	         23.90374920	          0.13203817	         -0.10000000	          0.05472503	          0.00000000	          0.00000000	          0.00000000	          0.00000000	         -5.76669211	          0.00000000	
          1.14000000	          0.00000000	          0.00000000	          0.00000000	          0.00000000	          0.00000000	          0.00000000	         77.53487241	        683.42590936	         24.32810768	          0.13213201	         -0.10000000	          0.05466945	          0.00000000	          0.00000000	          0.00000000	          0.00000000	         -5.75912759	          0.00000000	
          1.14400000	          0.00000000	          0.00000000	          0.00000000	          0.00000000	          0.00000000	          0.00000000	         82.00779979	        699.96929604	         24.74686012	          0.13224459	         -0.10000000	          0.05463679	          0.00000000	          0.00000000	          0.00000000	          0.00000000	         -5.73579223	          0.00000000	
